<svg width="180" height="58" viewBox="0 0 180 58" fill="none" xmlns="http://www.w3.org/2000/svg">
<path d="M166.67 18.5458H180V22.8925H166.67V18.5458ZM171.017 9.27289H175.653V45.2054H171.017V9.27289Z" fill="black"/>
<path d="M160.308 7.53406C160.308 6.6454 160.617 5.89198 161.236 5.27379C161.892 4.65559 162.646 4.3465 163.496 4.3465C164.385 4.3465 165.138 4.65559 165.756 5.27379C166.374 5.89198 166.683 6.6454 166.683 7.53406C166.683 8.38407 166.374 9.1375 165.756 9.79433C165.138 10.4125 164.385 10.7216 163.496 10.7216C162.646 10.7216 161.892 10.4125 161.236 9.79433C160.617 9.1375 160.308 8.38407 160.308 7.53406ZM161.178 18.5456H165.814V45.2052H161.178V18.5456Z" fill="black"/>
<path d="M139.13 0H143.766V45.2054H139.13V0ZM153.619 18.5458H159.414L147.823 29.5574L160.573 45.2054H154.778L142.028 29.5574L153.619 18.5458Z" fill="black"/>
<path d="M124.545 45.7848C122.072 45.7848 119.87 45.2052 117.938 44.0461C116.045 42.8484 114.558 41.2063 113.476 39.1199C112.432 37.0335 111.911 34.6187 111.911 31.8754C111.911 29.0935 112.452 26.6594 113.534 24.573C114.654 22.4866 116.2 20.8638 118.17 19.7047C120.179 18.5456 122.497 17.9661 125.125 17.9661C127.752 17.9661 129.993 18.5263 131.848 19.6468C133.741 20.7286 135.19 22.2934 136.194 24.3412C137.199 26.389 137.701 28.8231 137.701 31.6436C137.701 31.9141 137.682 32.2038 137.643 32.5129C137.643 32.7834 137.643 32.9573 137.643 33.0345H114.867V29.0935H133.992L132.137 31.7595C132.253 31.5663 132.369 31.2765 132.485 30.8902C132.601 30.4652 132.659 30.1174 132.659 29.847C132.659 28.2629 132.331 26.8912 131.674 25.7321C131.056 24.573 130.186 23.665 129.066 23.0082C127.945 22.3514 126.632 22.023 125.125 22.023C123.347 22.023 121.821 22.4093 120.546 23.1821C119.31 23.9162 118.344 24.998 117.648 26.4276C116.992 27.8185 116.644 29.5379 116.605 31.5856C116.605 33.672 116.934 35.4493 117.591 36.9176C118.247 38.3858 119.213 39.5062 120.488 40.279C121.763 41.0517 123.309 41.4381 125.125 41.4381C126.941 41.4381 128.544 41.0517 129.935 40.279C131.326 39.4676 132.504 38.2505 133.47 36.6278L137.238 39.004C135.847 41.2449 134.089 42.9449 131.964 44.1041C129.877 45.2245 127.404 45.7848 124.545 45.7848Z" fill="black"/>
<path d="M90.1594 57.9555H85.5229V18.5456H90.1594V57.9555ZM112.472 31.8754C112.472 34.7346 111.873 37.2073 110.676 39.2937C109.478 41.3801 107.875 42.9836 105.865 44.1041C103.895 45.2245 101.693 45.7848 99.2584 45.7848C97.0561 45.7848 95.1049 45.2245 93.4049 44.1041C91.7435 42.9836 90.4299 41.3801 89.4639 39.2937C88.5366 37.2073 88.073 34.7346 88.073 31.8754C88.073 28.9776 88.5366 26.5049 89.4639 24.4571C90.4299 22.3707 91.7435 20.7673 93.4049 19.6468C95.1049 18.5263 97.0561 17.9661 99.2584 17.9661C101.693 17.9661 103.895 18.5263 105.865 19.6468C107.875 20.7673 109.478 22.3707 110.676 24.4571C111.873 26.5049 112.472 28.9776 112.472 31.8754ZM107.778 31.8754C107.778 29.8277 107.353 28.089 106.503 26.6594C105.692 25.2298 104.59 24.148 103.199 23.4139C101.847 22.6798 100.34 22.3127 98.6789 22.3127C97.3266 22.3127 95.9936 22.6798 94.6799 23.4139C93.3663 24.148 92.2844 25.2298 91.4344 26.6594C90.5844 28.089 90.1594 29.8277 90.1594 31.8754C90.1594 33.9232 90.5844 35.6619 91.4344 37.0914C92.2844 38.521 93.3663 39.6028 94.6799 40.3369C95.9936 41.071 97.3266 41.4381 98.6789 41.4381C100.34 41.4381 101.847 41.071 103.199 40.3369C104.59 39.6028 105.692 38.521 106.503 37.0914C107.353 35.6619 107.778 33.9232 107.778 31.8754Z" fill="black"/>
<path d="M68.1759 37.0335C68.7168 37.8448 69.335 38.5983 70.0304 39.2937C70.7259 39.9892 71.518 40.5494 72.4066 40.9745C73.3339 41.3608 74.3385 41.554 75.4203 41.554C76.734 41.554 77.7579 41.2642 78.492 40.6847C79.2647 40.0665 79.6511 39.2358 79.6511 38.1926C79.6511 37.2653 79.342 36.4926 78.7238 35.8744C78.1442 35.2175 77.3908 34.6766 76.4635 34.2516C75.5362 33.788 74.551 33.3629 73.5078 32.9766C72.3487 32.5129 71.1702 31.972 69.9725 31.3538C68.8134 30.697 67.8281 29.8663 67.0167 28.8617C66.244 27.8185 65.8576 26.5242 65.8576 24.9787C65.8576 23.3946 66.2633 22.0809 67.0747 21.0377C67.9247 19.9945 69.0066 19.2218 70.3202 18.7195C71.6725 18.2172 73.0635 17.9661 74.493 17.9661C75.9226 17.9661 77.2556 18.1979 78.492 18.6615C79.767 19.1252 80.8875 19.7434 81.8534 20.5161C82.8193 21.2889 83.5727 22.1775 84.1137 23.1821L80.4045 25.5583C79.6704 24.5537 78.7431 23.723 77.6226 23.0662C76.5408 22.4093 75.3044 22.0809 73.9135 22.0809C72.9475 22.0809 72.1168 22.2934 71.4214 22.7184C70.7259 23.1434 70.3782 23.8003 70.3782 24.6889C70.3782 25.3844 70.6486 26.0026 71.1896 26.5435C71.7305 27.0844 72.4259 27.5674 73.276 27.9924C74.126 28.4174 75.0146 28.8231 75.9419 29.2095C77.4874 29.8277 78.8977 30.5038 80.1727 31.2379C81.4477 31.9334 82.4523 32.7834 83.1864 33.788C83.9591 34.7925 84.3455 36.0869 84.3455 37.671C84.3455 39.9892 83.4955 41.9211 81.7954 43.4665C80.134 45.012 77.9317 45.7848 75.1885 45.7848C73.4112 45.7848 71.8077 45.4757 70.3782 44.8575C68.9486 44.2006 67.7315 43.37 66.727 42.3654C65.761 41.3608 65.0269 40.3369 64.5247 39.2937L68.1759 37.0335Z" fill="black"/>
<path d="M37.7549 31.8754C37.7549 29.1708 38.3538 26.7753 39.5515 24.6889C40.7879 22.6025 42.4493 20.9604 44.5357 19.7627C46.6221 18.5649 48.9596 17.9661 51.5483 17.9661C54.1756 17.9661 56.5132 18.5649 58.561 19.7627C60.6474 20.9604 62.2894 22.6025 63.4872 24.6889C64.7236 26.7753 65.3418 29.1708 65.3418 31.8754C65.3418 34.5414 64.7236 36.9369 63.4872 39.0619C62.2894 41.1483 60.6474 42.7904 58.561 43.9881C56.5132 45.1859 54.1756 45.7848 51.5483 45.7848C48.9596 45.7848 46.6221 45.1859 44.5357 43.9881C42.4493 42.7904 40.7879 41.1483 39.5515 39.0619C38.3538 36.9369 37.7549 34.5414 37.7549 31.8754ZM42.4493 31.8754C42.4493 33.73 42.8357 35.3721 43.6084 36.8016C44.4198 38.2312 45.5016 39.371 46.8539 40.221C48.2449 41.0324 49.8097 41.4381 51.5483 41.4381C53.287 41.4381 54.8325 41.0324 56.1848 40.221C57.5757 39.371 58.6576 38.2312 59.4303 36.8016C60.2417 35.3721 60.6474 33.73 60.6474 31.8754C60.6474 30.0208 60.2417 28.3788 59.4303 26.9492C58.6576 25.481 57.5757 24.3412 56.1848 23.5298C54.8325 22.7184 53.287 22.3127 51.5483 22.3127C49.8097 22.3127 48.2449 22.7184 46.8539 23.5298C45.5016 24.3412 44.4198 25.481 43.6084 26.9492C42.8357 28.3788 42.4493 30.0208 42.4493 31.8754Z" fill="black"/>
<path d="M30.3296 18.5456V45.2052H25.6931V18.5456H30.3296ZM38.3854 23.6457C37.7672 23.1821 37.207 22.8537 36.7047 22.6605C36.2024 22.4286 35.5649 22.3127 34.7922 22.3127C33.633 22.3127 32.7251 22.6025 32.0682 23.1821C31.4114 23.7616 30.9478 24.5537 30.6773 25.5583C30.4455 26.5628 30.3296 27.7026 30.3296 28.9776H28.2432C28.2432 26.8526 28.6102 24.9787 29.3443 23.3559C30.1171 21.6945 31.1023 20.3809 32.3001 19.415C33.4978 18.449 34.7149 17.9661 35.9513 17.9661C36.9172 17.9661 37.8058 18.1013 38.6172 18.3718C39.4672 18.6036 40.24 19.0865 40.9354 19.8206L38.3854 23.6457Z" fill="black"/>
<path d="M0 4.63635H4.92623V45.2053H0V4.63635ZM2.72392 9.27281V4.63635H11.0116C13.6389 4.63635 15.9764 5.13864 18.0242 6.1432C20.1106 7.10913 21.7527 8.50006 22.9504 10.316C24.1868 12.1319 24.805 14.2956 24.805 16.807C24.805 19.2798 24.1868 21.4435 22.9504 23.2981C21.7527 25.114 20.1106 26.5243 18.0242 27.5288C15.9764 28.4948 13.6389 28.9777 11.0116 28.9777H2.72392V24.3413H11.0116C13.6389 24.3413 15.7639 23.7038 17.3867 22.4287C19.0481 21.1537 19.8788 19.2798 19.8788 16.807C19.8788 14.2956 19.0481 12.4217 17.3867 11.1853C15.7639 9.91032 13.6389 9.27281 11.0116 9.27281H2.72392Z" fill="black"/>
</svg>
